<svg width="513" height="513" viewBox="0 0 513 513" fill="none" xmlns="http://www.w3.org/2000/svg">
<g clip-path="url(#clip0_408:8)">
<path d="M301.258 256.01L502.645 54.645C515.146 42.144 515.146 21.876 502.645 9.37599C490.144 -3.12501 469.876 -3.12501 457.376 9.37599L256.01 210.762L54.6447 9.37599C42.1437 -3.12501 21.8758 -3.12501 9.37575 9.37599C-3.12425 21.877 -3.12525 42.145 9.37575 54.645L210.762 256.01L9.37575 457.376C-3.12525 469.877 -3.12525 490.145 9.37575 502.645C21.8768 515.145 42.1447 515.146 54.6447 502.645L256.01 301.258L457.375 502.645C469.876 515.146 490.144 515.146 502.644 502.645C515.145 490.144 515.145 469.876 502.644 457.376L301.258 256.01Z" fill="white"/>
</g>
<defs>
<clipPath id="clip0_408:8">
<rect width="512.021" height="512.021" fill="white"/>
</clipPath>
</defs>
</svg>
